<?xml version="1.0" standalone="no"?><!DOCTYPE svg PUBLIC "-//W3C//DTD SVG 1.1//EN" "http://www.w3.org/Graphics/SVG/1.1/DTD/svg11.dtd"><svg t="1595160019793" class="icon" viewBox="0 0 1024 1024" version="1.1" xmlns="http://www.w3.org/2000/svg" p-id="2909" xmlns:xlink="http://www.w3.org/1999/xlink" width="200" height="200"><defs><style type="text/css"></style></defs><path d="M671.830688 511.699001l319.059377-319.059377c43.945914-43.945914 43.945914-115.583774 0-159.529688-43.945914-43.945914-115.583774-43.945914-159.529688 0l-319.059377 319.059377-319.059377-319.059377c-43.945914-43.945914-115.583774-43.945914-159.529688 0-43.945914 43.945914-43.945914 115.583774 0 159.529688l319.059377 319.059377-319.059377 319.059377c-43.945914 43.945914-43.945914 115.583774 0 159.529688 43.945914 43.945914 115.583774 43.945914 159.529688 0l319.059377-319.059377 319.059377 319.059377c43.945914 43.945914 115.583774 43.945914 159.529688 0 43.945914-43.945914 43.945914-115.583774 0-159.529688L671.830688 511.699001z" p-id="2910" fill="#18a0db"></path></svg>