<svg id="ae0ed483-2375-4630-8129-5bebfcf074ba" data-name="Layer 1" xmlns="http://www.w3.org/2000/svg" width="300" height="200" viewBox="60 170 300 320.74126">
  <path d="M555.73364,405.49075a30.28061,30.28061,0,0,0-24.18012,12.02346,19.9375,19.9375,0,0,0-27.8185,18.30907h82.33115A30.33247,30.33247,0,0,0,555.73364,405.49075Z" transform="translate(-270.64162 -208.62937)" fill="#e6e6e6"/>
  <path d="M669.46656,384.5H309.13411a18.20279,18.20279,0,0,0-18.177,18.177V673.19362a18.20278,18.20278,0,0,0,18.177,18.177H669.46656a18.20278,18.20278,0,0,0,18.177-18.177V402.677A18.20279,18.20279,0,0,0,669.46656,384.5ZM685.5051,673.19362a16.05809,16.05809,0,0,1-16.03854,16.03854H309.13411a16.05809,16.05809,0,0,1-16.03854-16.03854V402.677a16.05809,16.05809,0,0,1,16.03854-16.03854H669.46656A16.05809,16.05809,0,0,1,685.5051,402.677Z" transform="translate(-270.64162 -208.62937)" fill="#3f3d56"/>
  <circle cx="80.7273" cy="289.7442" r="80.7273" fill="#18a0db"/>
  <path d="M687.64357,613.39127v22.3791H290.9571V613.28431l2.13847-3.07934L418.85921,429.10845a6.196,6.196,0,0,1,10.17914,0l84.34119,121.43311,60.03749-85.6885a6.19679,6.19679,0,0,1,10.15774,0L685.5051,610.33327Z" transform="translate(-270.64162 -208.62937)" fill="#3f3d56"/>
  <path d="M378.09981,661.432H315.0149a1.06924,1.06924,0,0,1,0-2.13847h63.08491a1.06923,1.06923,0,1,1,0,2.13847Z" transform="translate(-270.64162 -208.62937)" fill="#3f3d56"/>
  <path d="M473.2618,661.432H410.17689a1.06924,1.06924,0,1,1,0-2.13847H473.2618a1.06923,1.06923,0,0,1,0,2.13847Z" transform="translate(-270.64162 -208.62937)" fill="#3f3d56"/>
  <path d="M568.42378,661.432H505.33887a1.06924,1.06924,0,0,1,0-2.13847h63.08491a1.06923,1.06923,0,1,1,0,2.13847Z" transform="translate(-270.64162 -208.62937)" fill="#3f3d56"/>
  <path d="M663.58577,661.432H600.50085a1.06924,1.06924,0,0,1,0-2.13847h63.08492a1.06923,1.06923,0,0,1,0,2.13847Z" transform="translate(-270.64162 -208.62937)" fill="#3f3d56"/>
  <path d="M490.90419,456.13876a37.35921,37.35921,0,0,0-29.83262,14.83414A24.59823,24.59823,0,0,0,426.75,493.562h101.5774A37.42318,37.42318,0,0,0,490.90419,456.13876Z" transform="translate(-270.64162 -208.62937)" fill="#ccc"/>
</svg>